<svg xmlns="http://www.w3.org/2000/svg" xmlns:xlink="http://www.w3.org/1999/xlink" width="500" zoomAndPan="magnify" viewBox="0 0 375 374.999991" height="500" preserveAspectRatio="xMidYMid meet" version="1.2"><defs><clipPath id="41e653fbd6"><path d="M 112.5 118.78125 L 262.5 118.78125 L 262.5 256.03125 L 112.5 256.03125 Z M 112.5 118.78125 "/></clipPath><clipPath id="b741245762"><path d="M 157.046875 161.414062 L 217.953125 161.414062 L 217.953125 204.203125 L 157.046875 204.203125 Z M 157.046875 161.414062 "/></clipPath><clipPath id="b3ec7155cb"><path d="M 0.046875 0.414062 L 60.953125 0.414062 L 60.953125 43.203125 L 0.046875 43.203125 Z M 0.046875 0.414062 "/></clipPath><clipPath id="41e2fd9283"><rect x="0" width="61" y="0" height="44"/></clipPath></defs><g id="a711d788ed"><rect x="0" width="375" y="0" height="374.999991" style="fill:#ffffff;fill-opacity:1;stroke:none;"/><rect x="0" width="375" y="0" height="374.999991" style="fill:#2154fa;fill-opacity:1;stroke:none;"/><g clip-rule="nonzero" clip-path="url(#41e653fbd6)"><path style=" stroke:none;fill-rule:nonzero;fill:#ffffff;fill-opacity:1;" d="M 153.421875 118.78125 C 130.835938 118.78125 112.535156 137.085938 112.535156 159.667969 C 112.535156 198.976562 158.132812 236.539062 179.433594 253.265625 C 179.457031 253.28125 179.476562 253.296875 179.496094 253.316406 C 179.640625 253.429688 179.839844 253.59375 179.984375 253.707031 L 179.996094 253.691406 C 181.078125 254.507812 182.257812 255.132812 183.542969 255.566406 C 184.828125 256 186.144531 256.214844 187.5 256.21875 C 188.855469 256.21875 190.179688 256 191.464844 255.566406 C 192.75 255.136719 193.933594 254.511719 195.015625 253.691406 L 195.015625 253.707031 C 195.058594 253.671875 195.121094 253.628906 195.164062 253.59375 C 195.195312 253.570312 195.238281 253.535156 195.273438 253.511719 C 195.3125 253.472656 195.355469 253.4375 195.394531 253.398438 C 216.632812 236.734375 262.464844 199.070312 262.464844 159.667969 C 262.464844 137.085938 244.164062 118.78125 221.578125 118.78125 C 199.996094 118.78125 187.5 137.523438 187.5 137.523438 C 187.5 137.523438 175.003906 118.78125 153.421875 118.78125 Z M 153.421875 118.78125 "/></g><g clip-rule="nonzero" clip-path="url(#b741245762)"><g transform="matrix(1,0,0,1,157,161)"><g clip-path="url(#41e2fd9283)"><g clip-rule="nonzero" clip-path="url(#b3ec7155cb)"><path style=" stroke:none;fill-rule:nonzero;fill:#ffffff;fill-opacity:1;" d="M 0.046875 0.414062 L 60.886719 0.414062 L 60.886719 43.203125 L 0.046875 43.203125 Z M 0.046875 0.414062 "/></g></g></g></g></g></svg>