<svg xmlns="http://www.w3.org/2000/svg" xmlns:xlink="http://www.w3.org/1999/xlink" width="1080" zoomAndPan="magnify" viewBox="0 0 810 809.999993" height="1080" preserveAspectRatio="xMidYMid meet" version="1.2"><defs><clipPath id="bd49704a2e"><path d="M 373.066406 283.5 L 468.085938 283.5 L 468.085938 423.953125 L 373.066406 423.953125 Z M 373.066406 283.5 "/></clipPath><clipPath id="1e85d814b2"><path d="M 0.0664062 0.5 L 95.085938 0.5 L 95.085938 140.953125 L 0.0664062 140.953125 Z M 0.0664062 0.5 "/></clipPath><clipPath id="f738634f41"><rect x="0" width="96" y="0" height="141"/></clipPath></defs><g id="35d9f910ad"><rect x="0" width="810" y="0" height="809.999993" style="fill:#ffffff;fill-opacity:1;stroke:none;"/><rect x="0" width="810" y="0" height="809.999993" style="fill:#3b69ff;fill-opacity:1;stroke:none;"/><path style=" stroke:none;fill-rule:nonzero;fill:#ffffff;fill-opacity:1;" d="M 547.046875 283.726562 C 547.046875 283.726562 507.238281 191.15625 398.558594 198.691406 C 289.882812 206.226562 269.4375 296.640625 269.4375 311.710938 C 269.4375 311.710938 215.640625 289.109375 172.59375 320.324219 C 129.554688 351.542969 142.464844 399.976562 142.464844 399.976562 C 142.464844 399.976562 58.539062 392.441406 39.171875 455.945312 C 19.804688 519.457031 147.851562 580.8125 230.699219 529.144531 C 230.699219 529.144531 295.261719 596.957031 399.636719 607.722656 C 504.003906 618.484375 556.726562 579.734375 578.25 533.449219 C 578.25 533.449219 629.902344 571.121094 705.222656 552.828125 C 780.539062 534.523438 763.328125 458.101562 763.328125 458.101562 C 763.328125 458.101562 790.226562 431.191406 780.539062 390.289062 C 770.855469 349.390625 733.199219 363.382812 724.59375 374.144531 C 724.59375 374.144531 738.578125 285.878906 669.714844 254.664062 C 600.847656 223.449219 547.046875 283.726562 547.046875 283.726562 Z M 547.046875 283.726562 "/><path style=" stroke:none;fill-rule:nonzero;fill:#c1d0d3;fill-opacity:1;" d="M 780.539062 390.289062 C 790.226562 431.191406 763.328125 458.101562 763.328125 458.101562 C 763.328125 458.101562 780.539062 534.523438 705.222656 552.828125 C 629.902344 571.121094 578.25 533.449219 578.25 533.449219 C 556.726562 579.734375 504.003906 618.484375 399.636719 607.722656 C 295.261719 596.957031 230.699219 529.144531 230.699219 529.144531 C 147.851562 580.8125 19.804688 519.457031 39.171875 455.945312 C 39.171875 455.945312 31.644531 503.3125 115.03125 514.613281 C 198.421875 525.914062 254.914062 483.933594 254.914062 483.933594 C 254.914062 483.933594 279.660156 540.449219 367.355469 565.738281 C 455.050781 591.039062 562.113281 565.203125 570.183594 490.394531 C 570.183594 490.394531 587.9375 531.832031 665.953125 537.757812 C 743.960938 543.675781 749.875 469.40625 718.671875 450.566406 C 718.671875 450.566406 745.574219 457.566406 770.859375 431.730469 C 783.90625 418.402344 780.539062 390.289062 780.539062 390.289062 Z M 780.539062 390.289062 "/><g clip-rule="nonzero" clip-path="url(#bd49704a2e)"><g transform="matrix(1,0,0,1,373,283)"><g clip-path="url(#f738634f41)"><g clip-rule="nonzero" clip-path="url(#1e85d814b2)"><path style=" stroke:none;fill-rule:nonzero;fill:#ffffff;fill-opacity:1;" d="M 0.0664062 0.5 L 95.085938 0.5 L 95.085938 140.800781 L 0.0664062 140.800781 Z M 0.0664062 0.5 "/></g></g></g></g></g></svg>